<svg width="81" height="58" viewBox="0 0 81 58" fill="none" xmlns="http://www.w3.org/2000/svg">
<path d="M40.5487 36.1306C40.5487 36.1306 52.9728 30.5158 60.9213 26.9106C60.9213 26.9106 61.4708 26.5621 62.0535 26.8985C62.6363 27.2349 62.5894 27.8022 62.5894 27.8022V42.303C62.5894 42.5666 62.4806 42.8304 62.2628 43.0415C59.433 45.8374 56.1677 48.0533 52.5213 49.583C48.7664 51.2184 44.7391 52.0097 40.6031 52.0097C36.4671 52.0097 32.4398 51.1656 28.6846 49.583C27.4874 49.0556 26.2902 48.4751 25.1474 47.7894C24.6031 47.5256 24.4398 46.8397 24.7664 46.3651C25.0385 45.8374 25.7459 45.6792 26.2358 45.9958C27.2697 46.5761 28.3583 47.1563 29.5011 47.6312C32.9841 49.1082 36.7391 49.8469 40.5487 49.8469C44.3583 49.8469 48.1132 49.1082 51.6507 47.6312C54.8616 46.2594 57.8003 44.3076 60.358 41.8281V29.4306L41.0385 38.2407C40.8752 38.2935 40.712 38.3463 40.5487 38.3463C40.3854 38.3463 40.2221 38.2935 40.0588 38.2407L25.2018 31.4881C24.6575 31.2244 24.3854 30.5914 24.6575 30.0637C24.9297 29.5362 25.5826 29.2724 26.1269 29.5362L40.5487 36.1306Z" fill="#343090"/>
<path d="M80.3358 18.1843L40.9555 0.118821C40.6838 -0.0396071 40.3037 -0.0396071 40.0322 0.118821L0.597424 18.1843C0.217284 18.3428 0 18.7124 0 19.1351C0 19.5576 0.217284 19.9275 0.597424 20.0859L13.9595 26.2133C14.5028 26.4775 15.1546 26.2133 15.4261 25.6852C15.6978 25.1569 15.4261 24.523 14.8831 24.2589L3.58498 19.0823L40.4667 2.28465L77.2941 19.1351L65.5613 24.523C65.0181 24.7872 64.8009 25.4209 65.0181 25.9492C65.1812 26.3189 65.6158 26.5303 65.9959 26.5303C66.1588 26.5303 66.3218 26.4775 66.4847 26.4247L80.3358 20.0859C80.716 19.9275 80.9332 19.5576 80.9332 19.1351C80.9332 18.7124 80.716 18.3428 80.3358 18.1843Z" fill="#343090"/>
<path d="M41.4294 17.4002C41.7009 17.9281 41.4837 18.5616 40.9404 18.8257L20.7879 28.4351V56.2074C20.7879 56.7881 20.2991 57.2634 19.7017 57.2634C19.104 57.2634 18.6152 56.7881 18.6152 56.2074V27.3806C18.6152 27.3806 18.6146 27.2024 18.7811 27.089C18.9476 26.9755 18.9975 26.9592 18.9975 26.9592L39.9627 16.925C40.5059 16.6609 41.1577 16.8721 41.4294 17.4002Z" fill="#343090"/>
</svg>
